# xmcd
#
# Track frame offsets: 
#        150
#        18637
#        40359
#        60072
#        85230
#        107853
#        126055
#        140614
#        167551
#        192745
#        217616
#        237415
#        258712
#
# Disc length: 3782 seconds
#
# Revision: 1
# Processed by: cddbd v1.5.2PL0 Copyright (c) Steve Scherf et al.
# Submitted via: ExactAudioCopy v1.0b4
#
DISCID=b60ec40d
DTITLE=Mississippi Heat - Hattiesburg Blues
DYEAR=2008
DGENRE=Blues
TTITLE0=Tiger Man
TTITLE1=Chicago Is My Home
TTITLE2=Forgot You Had A Home
TTITLE3=How Much Worse Can It Be
TTITLE4=Soft-Hearted Woman
TTITLE5=Hattiesburg Blues
TTITLE6=Gone So Long
TTITLE7=Light From Within
TTITLE8=Calypso In Blue
TTITLE9=Hell And Back
TTITLE10=Say Something Good
TTITLE11=Foolish Man
TTITLE12=Nature Is Cryin'
EXTD=
EXTT0=
EXTT1=
EXTT2=
EXTT3=
EXTT4=
EXTT5=
EXTT6=
EXTT7=
EXTT8=
EXTT9=
EXTT10=
EXTT11=
EXTT12=
PLAYORDER=
